<svg width="307" height="143" viewBox="0 0 307 143" fill="none" xmlns="http://www.w3.org/2000/svg">
<g clip-path="url(#clip0_93_2)">
<path d="M31.49 120.88C26.61 120.95 20.09 122.66 17.91 128.28C17.69 128.91 17.54 129.54 17.54 130.09C17.54 132.75 19.69 134.68 24.24 135.46C31.79 136.79 38.49 134.2 38.49 134.2L31.16 141.67C31.16 141.67 24.98 143.15 17.43 142.63C7.74 141.93 0 138.34 0 131.27C0 129.97 0.3 128.57 0.85 127.09C1.59 125.09 3.07 122.95 5.25 121.24H13.69L13.95 120.61H8.99C6.66 120.61 4.22 119.83 2.33 118.17C1.15 117.1 0.59 115.95 0.07 114.62C0.07 114.62 23.01 114.58 23.01 114.62C25.01 114.43 27.01 114.29 29.3 114.21C36.81 114.06 41.25 115.25 41.25 115.25V122.35C41.25 122.35 37.99 120.72 31.48 120.87L31.49 120.88Z" fill="#292F33"/>
<path d="M66.6405 126.8C58.5005 126.76 53.8405 138.09 52.8405 140.19L51.8405 142.23H37.4805L46.0605 121.62C46.0605 121.62 61.6005 121.03 65.9305 121.03C70.2605 121.03 72.1105 121.7 72.0705 122.29V128.14C72.0705 128.14 71.0005 126.81 66.6305 126.81L66.6405 126.8Z" fill="#292F33"/>
<path d="M94.0892 133.24L87.2792 133.61C87.2792 133.61 87.2092 133.83 87.2092 134.2C87.2092 135.24 87.9492 137.23 94.7592 137.23C101.119 137.23 104.749 135.38 104.749 135.38L102.749 140.08C102.449 140.86 101.969 140.93 101.119 141.23C100.639 141.42 97.1592 142.71 90.7592 142.71C79.2892 142.71 72.6992 138.57 72.6992 133.09C72.6992 126.73 81.5092 121.03 93.6092 121.03C103.489 121.03 107.889 124.51 107.889 127.73C107.889 131.13 104.709 132.73 94.0892 133.24ZM85.0992 120.44L86.2492 117.66L102.529 114.37V118.14L85.0992 120.43V120.44ZM93.3492 126.03C89.3192 126.03 88.0192 130.14 88.0192 130.14L90.7592 129.96C94.7592 129.66 95.4192 129.26 95.9392 128.18L96.8992 126.22C96.8992 126.22 95.7892 126.03 93.3492 126.03Z" fill="#292F33"/>
<path d="M141.971 142.27H127.951L130.241 136.83C130.241 136.83 125.801 142.57 117.881 142.57C111.661 142.57 108.561 139.46 108.561 135.17C108.561 127.77 116.181 121.11 127.431 121.11C143.421 121.11 150.561 121.63 150.561 121.63L141.981 142.28L141.971 142.27ZM130.801 126.21C125.471 126.21 123.401 133.24 123.401 134.94C123.401 136.35 124.181 136.68 124.921 136.68C127.031 136.68 130.251 134.5 133.101 128.65L134.281 126.21H130.801Z" fill="#292F33"/>
<path d="M179.409 126.29H172.049L168.529 134.58C167.939 135.99 169.269 137.1 172.489 137.1C175.449 137.1 177.709 136.21 177.709 136.21L174.309 140.83C174.089 141.2 173.979 141.31 173.089 141.64C172.459 141.86 169.279 142.75 164.389 142.64C158.619 142.57 151.619 140.27 153.699 135.28L157.509 126.29H150.699L154.549 121.63L170.049 116.71L176.009 116.67L173.859 121.63H183.149L179.409 126.29Z" fill="#292F33"/>
<path d="M193.25 142.27H178.75L187.26 121.62H201.69L193.25 142.27ZM197.25 119.74C193.7 119.74 189.11 118.93 189.11 116.3C189.11 113.67 193.48 112.78 196.88 112.78C200.28 112.78 205.02 113.63 205.02 116.37C205.02 118.66 200.69 119.74 197.25 119.74Z" fill="#292F33"/>
<path d="M223.55 142.23H208.49L203.75 121.62H217.92L218.88 134.53L230.13 121.62H245.08L223.54 142.23H223.55Z" fill="#292F33"/>
<path d="M263.289 133.24L256.479 133.61C256.479 133.61 256.409 133.83 256.409 134.2C256.409 135.24 257.189 137.23 263.999 137.23C270.329 137.23 273.949 135.38 273.949 135.38L271.989 140.08C271.689 140.86 271.179 140.93 270.359 141.23C269.839 141.42 266.359 142.71 259.999 142.71C248.489 142.71 241.939 138.57 241.939 133.09C241.939 126.73 250.749 121.03 262.809 121.03C272.729 121.03 277.089 124.51 277.089 127.73C277.089 131.13 273.909 132.73 263.289 133.24ZM262.549 126.02C258.519 126.02 257.219 130.13 257.219 130.13L259.999 129.95C263.959 129.65 264.659 129.25 265.179 128.17L266.109 126.21C266.109 126.21 264.999 126.02 262.559 126.02H262.549Z" fill="#292F33"/>
<path d="M299.369 125.99C297.079 125.99 295.449 126.69 295.449 127.62C295.449 129.84 304.629 131.36 304.629 135.72C304.629 140.08 296.189 142.68 288.499 142.68C281.909 142.68 277.989 141.35 277.179 140.87C276.509 140.46 276.139 140.17 276.369 139.54L278.369 134.95C278.369 134.95 281.399 137.69 285.469 137.69C286.279 137.69 287.319 137.47 287.319 136.47C287.319 133.1 280.359 131.96 280.359 128.26C280.359 123.82 286.979 121.04 296.789 121.04C303.149 121.04 306.969 122.71 306.969 122.71V128.08C306.969 128.08 304.269 126.01 299.379 126.01L299.369 125.99Z" fill="#292F33"/>
<path d="M153.479 49.39L165.979 85.85L198.069 64.18L186.399 100.65H223.489L213.909 111.07H238.699L271.419 85.44H207.859L227.029 23.96L173.479 61.22L153.479 0L133.469 61.22L79.9193 23.96L99.0893 85.44H35.5293L68.2493 111.07H93.0393L83.4593 100.65H120.549L108.879 64.18L140.969 85.85L153.479 49.39Z" fill="#292F33"/>
</g>
<defs>
<clipPath id="clip0_93_2">
<rect width="306.95" height="142.75" fill="white"/>
</clipPath>
</defs>
</svg>
