<svg width="44" height="48" viewBox="0 0 44 48" fill="none" xmlns="http://www.w3.org/2000/svg">
<path d="M35.6524 39.5152C35.7964 38.9512 35.6884 38.2552 35.3764 37.7512C35.2324 37.4992 34.9684 37.1872 34.5484 37.0912C34.4764 37.0792 34.4044 37.0672 34.3324 37.0672C33.6124 37.9552 32.7844 38.7592 31.8124 39.4432C29.2084 41.2672 25.9804 42.1912 22.8124 42.1912C21.3604 42.1912 19.9324 41.9872 18.5644 41.5912C17.9044 42.0472 17.4604 42.4912 17.3404 42.9232C17.2444 43.2832 17.4604 43.7272 18.0004 44.2432C18.0244 44.2672 18.0484 44.2912 18.0604 44.3152C18.6124 44.7952 19.4524 45.0112 20.1244 45.1552C24.5644 46.0792 29.4244 45.0952 33.1204 42.5272C34.5604 41.5312 35.3884 40.5472 35.6524 39.5152Z" fill="white"/>
<path d="M37.4404 36.5152C37.0204 35.8192 36.4324 35.2912 35.7364 34.9912C38.0764 30.6952 38.3764 25.1752 37.6324 20.6272C37.3444 18.8272 36.3964 14.4352 33.8044 12.6592C31.6684 11.1832 29.4244 11.1352 27.7684 12.5152C27.1444 13.0432 26.7484 13.6432 26.5204 14.3032C25.3684 13.0672 23.7604 12.2872 22.1164 12.1912C20.4724 12.0952 18.9484 12.7552 17.8804 14.0272C17.7484 14.1832 17.6284 14.3512 17.5084 14.5312C16.0564 10.9192 13.9684 5.9032 12.8764 3.5872C11.4604 0.563198 8.6764 -0.696802 5.7844 0.383198C4.0204 1.0432 2.6644 2.5792 2.2444 4.4152C1.8364 6.2032 2.4724 7.5832 2.9764 8.6992C3.3604 9.5392 8.4124 20.1712 10.0084 23.1592C9.9124 23.1112 9.8164 23.0752 9.7204 23.0392C8.1724 22.4632 4.6084 21.6952 2.1964 22.8472C1.2364 23.3032 0.552395 24.0352 0.240395 24.9712C-0.623605 27.5392 1.0924 29.9392 3.1804 31.1992L3.7204 31.5232C5.7484 32.7352 7.6804 33.8752 9.4324 35.3752C9.9724 35.8432 10.5124 36.3232 11.0404 36.8032C12.3484 38.0032 13.7044 39.2392 15.2764 40.1992C15.5404 40.3552 15.8164 40.4752 16.0924 40.6192C15.5884 41.1352 15.2164 41.6992 15.0484 42.3232C14.8084 43.1872 14.8324 44.5072 16.2724 45.9232C16.2964 45.9592 16.3324 45.9832 16.3564 46.0192C17.3524 46.9672 18.6484 47.3272 19.6684 47.5312C20.9164 47.7952 22.2004 47.9272 23.4844 47.9272C27.3964 47.9272 31.3324 46.7392 34.5124 44.5312C36.4444 43.1872 37.5844 41.7592 38.0044 40.1392C38.3044 38.9392 38.1004 37.5952 37.4644 36.5392L37.4404 36.5152ZM20.1244 45.1552C19.4524 45.0232 18.6124 44.8072 18.0604 44.3152C18.0364 44.2912 18.0124 44.2672 18.0004 44.2432C17.4604 43.7272 17.2444 43.2952 17.3404 42.9232C17.4604 42.4912 17.9044 42.0352 18.5644 41.5912C19.9324 41.9752 21.3604 42.1912 22.8124 42.1912C25.9924 42.1912 29.2204 41.2672 31.8124 39.4432C32.7844 38.7592 33.6124 37.9552 34.3324 37.0672C34.4044 37.0672 34.4884 37.0672 34.5484 37.0912C34.9564 37.1872 35.2204 37.4992 35.3764 37.7512C35.6884 38.2552 35.7844 38.9512 35.6524 39.5152C35.3884 40.5472 34.5604 41.5312 33.1204 42.5272C29.4124 45.0952 24.5644 46.0792 20.1244 45.1552ZM10.9684 33.5152C9.0604 31.8832 7.0564 30.6952 4.9324 29.4232L4.4044 29.1112C3.5284 28.5832 2.0044 27.2032 2.5084 25.7152C2.5804 25.5232 2.7244 25.2232 3.2284 24.9952C3.7564 24.7432 4.4884 24.6352 5.2684 24.6352C6.4804 24.6352 7.8364 24.8872 8.8924 25.2712C10.3444 25.8112 12.2644 27.5392 12.8764 28.1632C13.2964 28.5832 13.9564 28.6312 14.4364 28.2832C14.9164 27.9352 15.0604 27.2872 14.7844 26.7592C14.7244 26.6392 13.2004 23.7472 12.3844 22.4752C11.4964 21.0592 5.6164 8.6872 5.1604 7.6912C4.6084 6.4912 4.3804 5.8312 4.5844 4.9432C4.8244 3.9112 5.6284 2.9992 6.6244 2.6152C9.0604 1.7152 10.2964 3.6952 10.7164 4.5832C12.3004 7.9432 16.2484 17.6632 16.7884 19.1992C17.2804 20.6152 18.5884 23.4352 18.6484 23.5552C18.8404 23.9752 19.2724 24.2512 19.7404 24.2512C20.1244 24.2512 20.4844 24.0712 20.7124 23.7472C20.9404 23.4352 21.0004 23.0272 20.8804 22.6672C20.8444 22.5472 19.9204 19.7752 19.3564 18.4072C18.9484 17.4112 19.0924 16.2832 19.7164 15.5272C20.4364 14.6632 21.3364 14.5072 21.9844 14.5552C23.2084 14.6272 24.4684 15.3712 25.1884 16.4512C26.0164 17.6992 26.6644 19.2112 26.9764 20.5912C27.1204 21.2272 27.7564 21.6352 28.3924 21.5032C29.0404 21.3712 29.4484 20.7352 29.3164 20.0992C29.2444 19.7392 29.1604 19.3552 29.0644 18.9712C28.5604 16.7872 28.2724 15.1792 29.2804 14.3272C30.3484 13.4272 31.6924 14.1232 32.4004 14.6152C33.8884 15.6352 34.8484 18.6832 35.2204 20.9872C36.1084 26.4112 35.3764 33.9952 30.3964 37.4752C26.3404 40.3192 20.4844 40.5952 16.4644 38.1232C15.0844 37.2712 13.8724 36.1672 12.5884 34.9912C12.0364 34.4872 11.4844 33.9832 10.9204 33.5032L10.9684 33.5152Z" fill="#292F33"/>
<path d="M30.4444 37.4872C35.4124 33.9952 36.1444 26.4232 35.2684 20.9992C34.8964 18.6952 33.9364 15.6472 32.4484 14.6272C31.7404 14.1352 30.3844 13.4512 29.3284 14.3392C28.3084 15.1912 28.5964 16.7992 29.1124 18.9832C29.2084 19.3792 29.2924 19.7512 29.3644 20.1112C29.4964 20.7592 29.0764 21.3832 28.4404 21.5152C27.8044 21.6592 27.1684 21.2512 27.0244 20.6032C26.7124 19.2232 26.0524 17.7232 25.2364 16.4632C24.5164 15.3832 23.2564 14.6272 22.0324 14.5672C21.3964 14.5192 20.4964 14.6752 19.7644 15.5392C19.1404 16.2832 18.9964 17.4112 19.4044 18.4192C19.9564 19.7872 20.8804 22.5592 20.9284 22.6792C21.0484 23.0392 20.9884 23.4472 20.7604 23.7592C20.5324 24.0712 20.1724 24.2632 19.7884 24.2632C19.3204 24.2632 18.9004 23.9872 18.6964 23.5672C18.6364 23.4472 17.3284 20.6272 16.8364 19.2112C16.2964 17.6752 12.3484 7.9552 10.7644 4.5952C10.3444 3.7072 9.1084 1.7152 6.6724 2.6272C5.6764 2.9992 4.8724 3.9112 4.6324 4.9552C4.4284 5.8432 4.6564 6.5032 5.2084 7.7032C5.6524 8.6992 11.5444 21.0592 12.4324 22.4872C13.2364 23.7712 14.7604 26.6512 14.8324 26.7712C15.1084 27.2992 14.9644 27.9472 14.4844 28.2952C14.0044 28.6432 13.3444 28.5952 12.9244 28.1752C12.3124 27.5512 10.3924 25.8232 8.9404 25.2832C7.8964 24.8992 6.5284 24.6472 5.3164 24.6472C4.5244 24.6472 3.8044 24.7552 3.2764 25.0072C2.7724 25.2472 2.6284 25.5352 2.5564 25.7272C2.0524 27.2152 3.5764 28.5952 4.4524 29.1232L4.9804 29.4352C7.1044 30.6952 9.1084 31.8952 11.0164 33.5272C11.5804 34.0072 12.1324 34.5112 12.6844 35.0152C13.9684 36.1912 15.1804 37.2952 16.5604 38.1472C20.5804 40.6192 26.4364 40.3432 30.4924 37.4992L30.4444 37.4872Z" fill="white"/>
</svg>
