<svg width="44" height="48" viewBox="0 0 44 48" fill="none" xmlns="http://www.w3.org/2000/svg">
<path d="M17.4 2H21.6V44H17.4V2Z" fill="#292F33"/>
<path d="M9 41.2308H30V44H9V41.2308Z" fill="#292F33"/>
<path d="M9 2H30V4.76923H9V2Z" fill="#292F33"/>
<path fill-rule="evenodd" clip-rule="evenodd" d="M9 2V4.76923H17.4V41.2308H9V44H30V41.2308H21.6V4.76923H30V2H9ZM23.6 6.76923H30C31.1046 6.76923 32 5.8738 32 4.76923V2C32 0.89543 31.1046 0 30 0H9C7.89543 0 7 0.89543 7 2V4.76923C7 5.8738 7.89543 6.76923 9 6.76923H15.4V39.2308H9C7.89543 39.2308 7 40.1262 7 41.2308V44C7 45.1046 7.89543 46 9 46H30C31.1046 46 32 45.1046 32 44V41.2308C32 40.1262 31.1046 39.2308 30 39.2308H23.6V6.76923Z" fill="white"/>
</svg>
