<svg width="44" height="48" viewBox="0 0 44 48" fill="none" xmlns="http://www.w3.org/2000/svg">
<path d="M7.33008 31.9098L14.1701 23.3698L21.3001 39.2898L24.5001 37.9298L17.3601 21.9698L28.3601 22.8798L7.33008 3.83984V31.9098Z" fill="#292F33"/>
<path d="M32.6298 23.6L6.88977 0.29C6.67977 0.1 6.39977 0 6.12977 0C5.97977 0 5.81977 0.03 5.67977 0.09C5.26977 0.27 5.00977 0.66 5.00977 1.1V35.38C5.00977 35.85 5.30977 36.26 5.76977 36.42C5.88977 36.46 6.01977 36.48 6.13977 36.48C6.47977 36.48 6.80977 36.33 7.01977 36.06L13.6198 27.82L19.6598 41.34C19.7098 41.44 19.7698 41.53 19.8398 41.61C19.8598 41.64 19.8998 41.66 19.9198 41.68C19.9698 41.73 20.0198 41.78 20.0798 41.81C20.1198 41.83 20.1598 41.84 20.1898 41.86C20.2498 41.89 20.2998 41.92 20.3698 41.94C20.4098 41.95 20.4598 41.95 20.4998 41.96C20.5598 41.97 20.6198 41.99 20.6798 41.99C20.8198 41.99 20.9698 41.96 21.1098 41.9L26.5498 39.58C26.8298 39.46 27.0398 39.24 27.1498 38.97C27.2598 38.7 27.2498 38.39 27.1398 38.13L21.0998 24.61L31.7698 25.49H31.8698C32.3098 25.49 32.7198 25.24 32.8998 24.84C33.0898 24.41 32.9898 23.9 32.6398 23.59L32.6298 23.6ZM17.3598 21.97L24.4898 37.93L21.2898 39.29L14.1698 23.36L7.32977 31.9V3.84L28.3598 22.87L17.3598 21.97Z" fill="white"/>
</svg>
